<?xml version="1.0" encoding="utf-8"?><svg version="1.1" id="Layer_1" xmlns="http://www.w3.org/2000/svg" xmlns:xlink="http://www.w3.org/1999/xlink" x="0px" y="0px" viewBox="0 0 122.88 94.56" style="enable-background:new 0 0 122.88 94.56" xml:space="preserve"><style type="text/css"><![CDATA[
	.st0{fill-rule:evenodd;clip-rule:evenodd;fill:#EF4136;}
	.st1{fill-rule:evenodd;clip-rule:evenodd;fill:#393939;}
]]></style><g><path class="st1" d="M12.54,59h19.09c1.6,2.7,3.43,5.35,5.46,7.9c2.59,3.26,5.52,6.37,8.76,9.26c2.9,2.59,6.17,5.08,9.79,7.42 c0.16,0.12,0.33,0.24,0.51,0.35c2.01,1.29,4.25,1.85,6.47,1.78c2.07-0.07,4.09-0.71,5.84-1.85c7.58-4.64,14.17-10.94,19.29-18.2 c1.51-2.13,2.89-4.36,4.14-6.66h17.68l13.3,35.56H0L12.54,59L12.54,59z"/><path class="st0" d="M63.28,75.76c-0.56,0.41-1.31,0.46-1.93,0.06c-6.69-4.25-12.31-9.37-16.72-14.92 c-6.09-7.64-9.93-16.12-11.24-24.27c-1.34-8.28-0.09-16.23,4.03-22.71c1.62-2.56,3.7-4.89,6.23-6.9C49.46,2.39,56.1-0.05,62.7,0 c6.37,0.05,12.65,2.42,18.08,7.38c1.91,1.73,3.51,3.72,4.82,5.88c4.43,7.29,5.38,16.59,3.44,26.02 C86,54.04,76.25,67.89,63.28,75.76L63.28,75.76z M61.45,14.72c7.85,0,14.21,6.37,14.21,14.21c0,7.85-6.37,14.21-14.21,14.21 c-7.85,0-14.21-6.36-14.21-14.21C47.22,21.08,53.59,14.72,61.45,14.72L61.45,14.72L61.45,14.72L61.45,14.72z"/></g></svg>